# xmcd CD database file
#
# Track frame offsets:
#	150
#	14727
#	50949
#	62590
#	76190
#	90201
#	103306
#	117227
#	153077
#	166367
#	181207
#	196504
#	217375
#	231192
#	242180
#	258378
#	291316
#	304123
#	318220
#	332114
#
# Disc length: 4623 seconds
#
# Revision: 1
# Processed by: cddbd v1.5.2PL0 Copyright (c) Steve Scherf et al.
# Submitted via: CDex 1.70beta2
#
DISCID=1a120d14
DTITLE=Various Artist - Ladies sing Jazz - CD4
DYEAR=1900
DGENRE=Jazz
TTITLE0=Everybody Loves Somebody - Peggy Lee
TTITLE1=Fine And Mellow - Billie Holiday
TTITLE2=How High The Moon - Sarah Vaughan
TTITLE3=My Melancholy Baby - Ella Fitzgerald
TTITLE4=Well Make Today Last Night Again - Astrud Gilberto
TTITLE5=Oh What A Dream - Ruth Brown
TTITLE6=How Deep Is The Ocean - Peggy Lee
TTITLE7=A Foggy Day - Dinah Washington
TTITLE8=My Man - Billie Holiday
TTITLE9=Black Coffee - Sarah Vaughan
TTITLE10=You Dont Know What Love Is - Ella Fitzgerald
TTITLE11=Mississippi Goddam - Nina Simone
TTITLE12=Anniversary Song - Dinah Shore
TTITLE13=Makin Whoopie - Dinah Washington
TTITLE14=A Sinner Kissed An Angel - Sarah Vaughan
TTITLE15=My Foolish Heart - Carmen Mcrae
TTITLE16=Its A Good Day - Peggy Lee
TTITLE17=Darktown Strutters Ball - Ella Fitzgerald
TTITLE18=Once In A While - Sarah Vaughan 
TTITLE19=What Can I Say After I Say Im Sorry - Dinah Shore
EXTD=
EXTT0=
EXTT1=
EXTT2=
EXTT3=
EXTT4=
EXTT5=
EXTT6=
EXTT7=
EXTT8=
EXTT9=
EXTT10=
EXTT11=
EXTT12=
EXTT13=
EXTT14=
EXTT15=
EXTT16=
EXTT17=
EXTT18=
EXTT19=
PLAYORDER=
